nColumns=19
nRows=81
DataType=double
version=3
OpenSimVersion=4.1
endheader
time	ground_force_1_vx	ground_force_1_vy	ground_force_1_vz	ground_force_1_px	ground_force_1_py	ground_force_1_pz	ground_force_1_mx	ground_force_1_my	ground_force_1_mz	ground_force_2_vx	ground_force_2_vy	ground_force_2_vz	ground_force_2_px	ground_force_2_py	ground_force_2_pz	ground_force_2_mx	ground_force_2_my	ground_force_2_mz
1.3	0	0	0	-0.00252694	0	0.0014786	0	0	0	83.9264	1557.9	-7.90207	0.804373	0	-0.626094	-0	1.96365	-0
1.30833	0	0	0	-0.00252703	0	0.00147851	0	0	0	136.517	1410.8	-16.7228	0.767481	0	-0.624998	-0	2.45002	-0
1.31667	0	0	0	-0.00252711	0	0.00147843	0	0	0	192.451	1239.63	-27.0702	0.725982	0	-0.62376	-0	2.9562	-0
1.325	0	0	0	-0.0025272	0	0.00147835	0	0	0	226.771	1054.74	-34.0032	0.68764	0	-0.622531	-0	3.26605	-0
1.33333	0	0	0	-0.00252729	0	0.00147826	0	0	0	229.715	859.368	-34.3096	0.656366	0	-0.621047	-0	3.22726	-0
1.34167	0	0	0	-0.00252737	0	0.00147818	0	0	0	211.269	657.26	-29.1287	0.629457	0	-0.619521	-0	2.8109	-0
1.35	0	0	0	-0.00252746	0	0.0014781	0	0	0	179.002	460.401	-21.7471	0.602543	0	-0.618803	-0	2.11399	-0
1.35833	0	0	0	-0.00252754	0	0.00147802	0	0	0	133.413	286.176	-14.0497	0.573386	0	-0.618427	-0	1.31225	-0
1.36667	0	0	0	-0.00252763	0	0.00147794	0	0	0	82.0046	153.863	-6.32842	0.548562	0	-0.615438	-0	0.595185	-0
1.375	0	0	0	-0.00252771	0	0.00147786	0	0	0	38.8275	72.8533	0.438376	0.566246	0	-0.607411	-0	0.108479	-0
1.38333	0	0	0	-0.00252779	0	0.00147778	0	0	0	13.0634	32.7613	4.22531	0.675812	0	-0.597539	0	-0.086636	0
1.39167	0	0	0	-0.00252788	0	0.0014777	0	0	0	3.46811	13.9798	4.33697	0.756263	0	-0.580936	0	-0.028131	0
1.4	0	0	0	-0.00252796	0	0.00147762	0	0	0	0	0	0	-0.00252821	0	0.00147701	0	0	0
1.40833	0	0	0	-0.00252804	0	0.00147754	0	0	0	0	0	0	-0.00252829	0	0.00147693	0	0	0
1.41667	0	0	0	-0.00252812	0	0.00147746	0	0	0	0	0	0	-0.00252837	0	0.00147684	0	0	0
1.425	0	0	0	-0.00252821	0	0.00147738	0	0	0	0	0	0	-0.00252846	0	0.00147676	0	0	0
1.43333	0	0	0	-0.00252829	0	0.0014773	0	0	0	0	0	0	-0.00252854	0	0.00147668	0	0	0
1.44167	0	0	0	-0.00252837	0	0.00147723	0	0	0	0	0	0	-0.00252862	0	0.0014766	0	0	0
1.45	0	0	0	-0.00252845	0	0.00147715	0	0	0	0	0	0	-0.0025287	0	0.00147652	0	0	0
1.45833	0	0	0	-0.00252852	0	0.00147707	0	0	0	0	0	0	-0.00252878	0	0.00147643	0	0	0
1.46667	-1.35503	11.5663	2.35843	1.07126	0	-0.637209	-0	3.98258	-0	0	0	0	-0.00252886	0	0.00147636	0	0	0
1.475	-2.66125	17.0115	0.26751	1.04542	0	-0.631127	-0	5.86242	-0	0	0	0	-0.00252894	0	0.00147628	0	0	0
1.48333	-5.47418	42.7739	-3.08535	1.10875	0	-0.617983	-0	7.74709	-0	0	0	0	-0.00252902	0	0.0014762	0	0	0
1.49167	-14.1393	127.405	-6.91546	1.16599	0	-0.614019	-0	9.16682	-0	0	0	0	-0.0025291	0	0.00147612	0	0	0
1.5	-33.7792	322.782	-10.1218	1.17746	0	-0.615475	-0	9.6394	-0	0	0	0	-0.00252918	0	0.00147604	0	0	0
1.50833	-68.6649	641.182	-9.51408	1.17026	0	-0.619177	-0	8.83289	-0	0	0	0	-0.00252925	0	0.00147597	0	0	0
1.51667	-116.192	979.071	0.0364376	1.15869	0	-0.623009	-0	6.72086	-0	0	0	0	-0.00252933	0	0.00147589	0	0	0
1.525	-167.475	1186.61	20.2851	1.14698	0	-0.625418	-0	3.65793	-0	0	0	0	-0.0025294	0	0.00147582	0	0	0
1.53333	-223.537	1255.28	44.2014	1.13536	0	-0.625813	-0	0.312464	-0	0	0	0	-0.00252948	0	0.00147574	0	0	0
1.54167	-275.835	1299.37	59.7644	1.11932	0	-0.625096	0	-2.54143	0	0	0	0	-0.00252955	0	0.00147567	0	0	0
1.55	-289.099	1395.8	60.729	1.09199	0	-0.624681	0	-4.27981	0	0	0	0	-0.00252962	0	0.0014756	0	0	0
1.55833	-252.748	1545.15	51.3381	1.05574	0	-0.624644	0	-4.60474	0	0	0	0	-0.0025297	0	0.00147552	0	0	0
1.56667	-195.89	1705.58	39.8204	1.02084	0	-0.624103	0	-3.57424	0	0	0	0	-0.00252977	0	0.00147545	0	0	0
1.575	-146.444	1828.58	29.9092	0.991531	0	-0.622737	0	-1.51876	0	0	0	0	-0.00252984	0	0.00147538	0	0	0
1.58333	-109.89	1895.11	20.3293	0.964384	0	-0.620998	-0	1.07873	-0	0	0	0	-0.00252991	0	0.00147531	0	0	0
1.59167	-75.2497	1913.68	10.0795	0.936234	0	-0.619364	-0	3.69062	-0	0	0	0	-0.00252998	0	0.00147524	0	0	0
1.6	-38.2136	1896.28	0.888012	0.907901	0	-0.617946	-0	5.83482	-0	0	0	0	-0.00253005	0	0.00147518	0	0	0
1.60833	-5.64615	1848.17	-5.07705	0.881006	0	-0.616639	-0	7.15132	-0	0	0	0	-0.00253011	0	0.00147511	0	0	0
1.61667	22.323	1771.79	-7.24857	0.854745	0	-0.615575	-0	7.45685	-0	0	0	0	-0.00253018	0	0.00147504	0	0	0
1.625	52.1649	1668.54	-5.77108	0.82723	0	-0.615098	-0	6.76692	-0	0	0	0	-0.00253025	0	0.00147498	0	0	0
1.63333	86.7318	1537.59	-0.360869	0.797224	0	-0.615402	-0	5.28397	-0	0	0	0	-0.00253031	0	0.00147491	0	0	0
1.64167	126.284	1376.06	8.64021	0.763693	0	-0.616179	-0	3.35459	-0	0	0	0	-0.00253038	0	0.00147485	0	0	0
1.65	169.423	1184.67	18.7977	0.726163	0	-0.616909	-0	1.39672	-0	0	0	0	-0.00253044	0	0.00147478	0	0	0
1.65833	204.191	974.709	26.5311	0.687533	0	-0.617626	0	-0.195449	0	0	0	0	-0.0025305	0	0.00147472	0	0	0
1.66667	211.643	762.136	29.7537	0.652749	0	-0.618359	0	-1.14432	0	0	0	0	-0.00253056	0	0.00147466	0	0	0
1.675	189.792	558.803	28.8407	0.623589	0	-0.618336	0	-1.34634	0	0	0	0	-0.00253062	0	0.0014746	0	0	0
1.68333	150.965	375.06	25.0942	0.599928	0	-0.616874	0	-0.876017	0	0	0	0	-0.00253068	0	0.00147454	0	0	0
1.69167	104.821	223.885	19.4775	0.584115	0	-0.614397	-0	0.057356	-0	0	0	0	-0.00253074	0	0.00147448	0	0	0
1.7	59.1846	114.885	13.149	0.574463	0	-0.610327	-0	1.17965	-0	0	0	0	-0.0025308	0	0.00147443	0	0	0
1.70833	23.9909	48.6908	7.91439	0.557871	0	-0.599497	-0	2.2278	-0	0	0	0	-0.00253086	0	0.00147437	0	0	0
1.71667	5.47043	18.4987	5.11221	0.556455	0	-0.584178	-0	3.01222	-0	0	0	0	-0.00253091	0	0.00147431	0	0	0
1.725	0.234419	10.9478	4.35439	0.699737	0	-0.612246	-0	3.4479	-0	0	0	0	-0.00253097	0	0.00147426	0	0	0
1.73333	0	0	0	-0.00253071	0	0.00147497	0	0	0	0	0	0	-0.00253102	0	0.00147421	0	0	0
1.74167	0	0	0	-0.00253076	0	0.00147492	0	0	0	0	0	0	-0.00253107	0	0.00147415	0	0	0
1.75	0	0	0	-0.00253081	0	0.00147487	0	0	0	0	0	0	-0.00253113	0	0.0014741	0	0	0
1.75833	0	0	0	-0.00253086	0	0.00147482	0	0	0	0	0	0	-0.00253118	0	0.00147405	0	0	0
1.76667	0	0	0	-0.00253091	0	0.00147478	0	0	0	0	0	0	-0.00253123	0	0.001474	0	0	0
1.775	0	0	0	-0.00253096	0	0.00147473	0	0	0	0	0	0	-0.00253128	0	0.00147395	0	0	0
1.78333	0	0	0	-0.00253101	0	0.00147468	0	0	0	0	0	0	-0.00253132	0	0.0014739	0	0	0
1.79167	0	0	0	-0.00253105	0	0.00147464	0	0	0	0	0	0	-0.00253137	0	0.00147386	0	0	0
1.8	0	0	0	-0.0025311	0	0.0014746	0	0	0	0	0	0	-0.00253142	0	0.00147381	0	0	0
1.80833	0	0	0	-0.00253114	0	0.00147455	0	0	0	0.431571	10.6191	3.71448	1.08494	0	-0.638936	0	-1.28392	0
1.81667	0	0	0	-0.00253119	0	0.00147451	0	0	0	-1.68841	19.8804	4.01603	1.10109	0	-0.623726	0	-1.71592	0
1.825	0	0	0	-0.00253123	0	0.00147447	0	0	0	-4.40286	54.2458	3.8802	1.1187	0	-0.622729	0	-1.63347	0
1.83333	0	0	0	-0.00253127	0	0.00147443	0	0	0	-9.94161	160.161	2.97426	1.13012	0	-0.625451	0	-0.791985	0
1.84167	0	0	0	-0.00253131	0	0.0014744	0	0	0	-23.676	390.723	-0.274206	1.12836	0	-0.62595	-0	0.939362	-0
1.85	0	0	0	-0.00253135	0	0.00147436	0	0	0	-52.3606	735.236	-8.59083	1.11976	0	-0.625964	-0	3.47406	-0
1.85833	0	0	0	-0.00253138	0	0.00147432	0	0	0	-95.8945	1061.93	-23.2112	1.10825	0	-0.625614	-0	6.45317	-0
1.86667	0	0	0	-0.00253142	0	0.00147429	0	0	0	-144.987	1230.26	-40.3624	1.09514	0	-0.624562	-0	9.29173	-0
1.875	0	0	0	-0.00253146	0	0.00147425	0	0	0	-195.671	1269.44	-51.2439	1.0803	0	-0.623476	-0	11.344	-0
1.88333	0	0	0	-0.00253149	0	0.00147422	0	0	0	-241.162	1316.32	-48.3234	1.0619	0	-0.623395	-0	12.1314	-0
1.89167	0	0	0	-0.00253152	0	0.00147419	0	0	0	-255.113	1436.36	-33.4838	1.03754	0	-0.624279	-0	11.5162	-0
1.9	0	0	0	-0.00253156	0	0.00147416	0	0	0	-226.834	1598.62	-17.2599	1.00736	0	-0.625592	-0	9.72217	-0
1.90833	0	0	0	-0.00253159	0	0.00147413	0	0	0	-174.531	1748.99	-7.68146	0.974618	0	-0.627037	-0	7.2087	-0
1.91667	0	0	0	-0.00253162	0	0.0014741	0	0	0	-119.151	1860.16	-3.11159	0.94276	0	-0.628402	-0	4.5011	-0
1.925	0	0	0	-0.00253165	0	0.00147407	0	0	0	-75.7174	1924.92	1.69007	0.91451	0	-0.629366	-0	2.06932	-0
1.93333	0	0	0	-0.00253168	0	0.00147404	0	0	0	-42.8679	1940.15	6.75388	0.888659	0	-0.629975	-0	0.268627	-0
1.94167	0	0	0	-0.0025317	0	0.00147402	0	0	0	-9.65008	1911	8.12966	0.861268	0	-0.630701	0	-0.693027	0
1.95	0	0	0	-0.00253173	0	0.00147399	0	0	0	29.5958	1849.14	4.78389	0.831072	0	-0.631638	0	-0.774903	0
1.95833	0	0	0	-0.00253175	0	0.00147397	0	0	0	71.758	1760.41	-0.64886	0.800156	0	-0.632211	0	-0.096086	0
1.96667	0	0	0	-0.00253178	0	0.00147395	0	0	0	112.571	1639.87	-6.89758	0.769351	0	-0.631923	-0	1.10113	-0
